<?xml version="1.0" encoding="UTF-8" standalone="no"?>
<!-- Created with Inkscape (http://www.inkscape.org/) -->

<svg
   width="800"
   height="800"
   viewBox="0 0 211.66666 211.66667"
   version="1.1"
   id="svg8"
   inkscape:version="1.2.1 (9c6d41e, 2022-07-14)"
   sodipodi:docname="lojasdomago-sempreco-macos.svg"
   xmlns:inkscape="http://www.inkscape.org/namespaces/inkscape"
   xmlns:sodipodi="http://sodipodi.sourceforge.net/DTD/sodipodi-0.dtd"
   xmlns:xlink="http://www.w3.org/1999/xlink"
   xmlns="http://www.w3.org/2000/svg"
   xmlns:svg="http://www.w3.org/2000/svg"
   xmlns:rdf="http://www.w3.org/1999/02/22-rdf-syntax-ns#"
   xmlns:cc="http://creativecommons.org/ns#"
   xmlns:dc="http://purl.org/dc/elements/1.1/">
  <defs
     id="defs2" />
  <sodipodi:namedview
     id="base"
     pagecolor="#ffffff"
     bordercolor="#666666"
     borderopacity="1.0"
     inkscape:pageopacity="0.0"
     inkscape:pageshadow="2"
     inkscape:zoom="0.35540437"
     inkscape:cx="154.7533"
     inkscape:cy="274.3354"
     inkscape:document-units="mm"
     inkscape:current-layer="layer4"
     showgrid="false"
     units="px"
     inkscape:window-width="1390"
     inkscape:window-height="1027"
     inkscape:window-x="0"
     inkscape:window-y="25"
     inkscape:window-maximized="0"
     borderlayer="true"
     inkscape:snap-global="false"
     showguides="true"
     inkscape:guide-bbox="true"
     inkscape:pagecheckerboard="0"
     inkscape:showpageshadow="2"
     inkscape:deskcolor="#d1d1d1">
    <sodipodi:guide
       position="100.91964,10.205357"
       orientation="0,1"
       id="guide964"
       inkscape:locked="false" />
  </sodipodi:namedview>
  <metadata
     id="metadata5">
    <rdf:RDF>
      <cc:Work
         rdf:about="">
        <dc:format>image/svg+xml</dc:format>
        <dc:type
           rdf:resource="http://purl.org/dc/dcmitype/StillImage" />
        <dc:title />
      </cc:Work>
    </rdf:RDF>
  </metadata>
  <g
     inkscape:groupmode="layer"
     id="layer5"
     inkscape:label="cor"
     style="display:inline">
    <rect
       style="opacity:1;fill:#f9f9f9;fill-opacity:1;stroke:none;stroke-width:0.231321;stroke-opacity:1"
       id="rect828"
       width="212.04489"
       height="212.65562"
       x="0.21544681"
       y="-0.54533809" />
  </g>
  <g
     inkscape:groupmode="layer"
     id="layer6"
     inkscape:label="margem"
     style="display:inline;opacity:0">
    <rect
       style="opacity:1;fill:none;fill-opacity:1;stroke:#000000;stroke-width:13.765;stroke-linecap:square;stroke-miterlimit:4;stroke-dasharray:none;stroke-opacity:1;paint-order:normal"
       id="rect960"
       width="212.04491"
       height="212.65562"
       x="0.21544681"
       y="-0.54533809" />
  </g>
  <g
     inkscape:label="bg"
     inkscape:groupmode="layer"
     id="layer1"
     transform="translate(0,-85.333317)"
     style="display:inline">
    <image
       xlink:href="/var/www/applications/anuncios-controle/usados/./Kimono Karate Torah A3 lacrado + faixa branca brinde R$210 | Local=Vini, Caixa G Preta/20210617_101121.jpg"
       width="238.15654"
       height="212.17583"
       preserveAspectRatio="none"
       id="image3794"
       x="0.062731609"
       y="84.894157"
       style="display:inline" />
    <rect
       style="display:inline;opacity:1;fill:#44c554;fill-opacity:1;stroke:none;stroke-width:11.729;stroke-linecap:square;stroke-miterlimit:4;stroke-dasharray:none;stroke-opacity:1;paint-order:normal"
       id="rect962"
       width="93.171135"
       height="15.308036"
       x="-97.706833"
       y="271.4866"
       ry="4.3140831" />
  </g>
  <g
     inkscape:groupmode="layer"
     id="layer2"
     inkscape:label="titulo"
     style="display:inline;opacity:1">
    <rect
       id="rect3880-3"
       width="107.44235"
       height="34.04311"
       x="120.27129"
       y="215.45952"
       style="fill:#1e73be;fill-opacity:1;stroke-width:0.241729"
       ry="10.583333" />
    <rect
       id="rect588"
       width="227.71364"
       height="19.243404"
       x="-5.7363629"
       y="-27.940563"
       style="fill:#1e73be;fill-opacity:1;stroke:none;stroke-width:0.264583;stroke-opacity:1" />
  </g>
  <g
     inkscape:groupmode="layer"
     id="layer4"
     inkscape:label="img"
     style="display:inline;opacity:1">
    <image
       xlink:href="/Users/francisco/Downloads/gerador-anuncios-com-base-em-modelo-python-2023/modelos-de-anuncios/imagens/lojasdomago-logo-v2-800.png"
       y="161.82286"
       x="11.008595"
       id="image3877"
       fill="transparent"
       preserveAspectRatio="none"
       height="34.043114"
       width="34.043114"
       style="display:inline"
       inkscape:label="image3877" />
    <image
       xlink:href="../imagens/whatsapp-logo.png"
       width="13.426375"
       height="13.482319"
       preserveAspectRatio="none"
       id="image956"
       x="-24.321041"
       y="141.45149"
       style="display:inline" />
    <text
       xml:space="preserve"
       style="font-style:normal;font-weight:normal;font-size:9.08412px;line-height:1.25;font-family:arial;letter-spacing:0px;word-spacing:0px;fill:#ffffff;fill-opacity:1;stroke:none;stroke-width:0.227103"
       x="-74.863564"
       y="196.19087"
       id="text968"><tspan
         sodipodi:role="line"
         id="tspan966"
         x="-74.863564"
         y="196.19087"
         style="fill:#ffffff;stroke-width:0.227103">11 958877900</tspan></text>
    <path
       style="fill:#000000;fill-opacity:1;stroke-width:0.26701"
       d="m 158.95216,463.85935 c -0.0904,-0.23551 -0.10358,-0.58663 -0.0293,-0.78025 0.17871,-0.46574 12.81962,-4.67653 18.12203,-6.0366 7.47314,-1.91686 14.60672,-2.8772 18.38041,-2.47444 1.49581,0.15965 1.73556,0.25902 1.73556,0.71927 0,0.48561 -0.22994,0.54815 -2.53659,0.68983 -1.77998,0.10932 -6.42865,1.01163 -15.58474,3.02493 -11.26099,2.47613 -15.68249,3.63606 -19.4581,5.10462 -0.30292,0.1178 -0.52229,0.0316 -0.62933,-0.24736 z M 54.977993,458.81326 c -0.724087,-0.24934 -0.953655,-0.48811 -1.019433,-1.0603 -0.0682,-0.59325 0.226391,-1.06589 1.49779,-2.4031 1.449395,-1.52441 1.572387,-1.74679 1.460428,-2.64069 -0.272695,-2.17721 1.285042,-5.27683 3.131862,-6.23187 0.822876,-0.42552 4.808731,-0.85634 4.808731,-0.51976 0,0.12254 -0.284981,0.64973 -0.633287,1.17162 -0.437406,0.6554 -0.858593,2.10453 -1.361697,4.68507 -0.400625,2.0549 -0.896524,4.06127 -1.101998,4.45862 -1.026004,1.98407 -4.557144,3.3067 -6.782396,2.54041 z m 4.377167,-1.87001 c 0.260747,-0.19067 0.6423,-1.06178 0.847894,-1.93583 0.636713,-2.70682 0.590463,-2.733 -1.611222,-0.91183 -2.402222,1.98706 -2.650384,2.26964 -2.450545,2.79041 0.197088,0.5136 2.532869,0.5552 3.213873,0.0573 z m 1.004867,-5.7886 c 0.649814,-0.53563 1.023268,-1.10812 1.144534,-1.75453 0.099,-0.52771 0.245886,-1.13117 0.326414,-1.34103 0.106036,-0.27633 -0.06394,-0.38043 -0.616428,-0.37747 -0.419566,10e-4 -0.919,0.10315 -1.109856,0.22421 -0.65268,0.41401 -1.474335,4.04388 -0.915371,4.04388 0.113391,0 0.640213,-0.35778 1.170707,-0.79506 z m 21.65047,6.60252 c 0.218139,-0.33042 0.71312,-0.63876 1.099956,-0.68519 0.512943,-0.0616 0.74667,-0.27841 0.86341,-0.80104 0.08803,-0.39413 0.267894,-1.13714 0.399676,-1.65113 0.477847,-1.86374 0.393015,-1.95095 -1.103737,-1.13472 l -1.346324,0.73419 -0.553443,-0.66751 c -0.471383,-0.56855 -0.529545,-0.89669 -0.392268,-2.21307 0.333619,-3.19909 2.098213,-5.4828 4.572895,-5.91815 0.587422,-0.10329 1.388702,-0.49201 1.780622,-0.86369 0.819061,-0.77678 1.411039,-0.60206 1.173039,0.3462 -0.119195,0.47494 -0.05029,0.63839 0.269109,0.63839 0.337692,0 0.281779,0.17537 -0.261923,0.82153 -0.380193,0.45182 -0.691906,0.9024 -0.692697,1.00128 -8.01e-4,0.0988 -0.420685,2.16232 -0.933099,4.58545 -0.512413,2.4231 -0.932308,4.61593 -0.933099,4.87293 -0.0011,0.36992 0.228596,0.46726 1.102614,0.46726 h 1.10405 l -0.678898,0.53403 c -0.573077,0.45078 -1.083202,0.53401 -3.2727,0.53401 h -2.593801 z m 2.211183,-6.40824 c 0.916767,-0.59026 1.124027,-1.02512 1.599134,-3.35525 l 0.180531,-0.88539 -1.024475,0.0843 c -0.822647,0.0677 -1.096086,0.23447 -1.387964,0.8463 -0.38925,0.81595 -0.764888,3.91074 -0.474675,3.91074 0.09588,0 0.594235,-0.27035 1.107449,-0.60077 z m 22.2271,5.70662 c 0.79937,-0.68424 0.93678,-1.04625 1.64277,-4.32808 0.97059,-4.51186 1.15393,-5.58396 0.95484,-5.58396 -0.0873,0 -0.51335,0.18333 -0.94663,0.40738 -0.70614,0.36516 -0.78777,0.36516 -0.78777,0 0,-0.58945 0.85944,-1.36071 2.36833,-2.12533 1.12478,-0.56997 1.36491,-0.61226 1.63417,-0.28782 0.1736,0.20918 0.23812,0.50574 0.14337,0.65903 -0.27778,0.44945 0.0868,0.32477 1.13696,-0.38882 1.21409,-0.82498 2.03632,-0.84862 2.57882,-0.0741 0.87662,1.25154 0.16592,4.40202 -1.37871,6.11174 -1.12328,1.24332 -1.73247,1.61368 -3.00145,1.82467 -0.88117,0.14652 -0.93841,0.2247 -1.22994,1.68001 -0.16817,0.83948 -0.24291,1.58916 -0.16611,1.66596 0.0769,0.0769 0.61884,0.13964 1.20455,0.13964 1.04802,0 1.05725,0.009 0.58165,0.53402 -0.42085,0.46504 -0.81422,0.53262 -3.04526,0.52317 l -2.56195,-0.0115 0.87235,-0.74669 z m 5.75133,-5.8499 c 0.68613,-0.75816 1.25311,-2.35062 1.25311,-3.51953 0,-0.59214 -0.0922,-1.07662 -0.20503,-1.07662 -0.51609,0 -2.20555,1.41135 -2.32618,1.94327 -0.47419,2.09085 -0.59279,2.85403 -0.46356,2.98325 0.3154,0.31539 1.33172,0.12269 1.74166,-0.33037 z m 57.65169,4.86757 c -1.03381,-0.7241 -0.76399,-1.60912 1.02397,-3.35864 1.20212,-1.17627 1.5763,-1.71213 1.4573,-2.08702 -0.14529,-0.45778 -0.30522,-0.40427 -1.73004,0.57895 -1.63388,1.12746 -2.41271,1.1977 -2.41271,0.21756 0,-0.69107 -0.0895,-0.6823 -1.2777,0.12513 -0.54029,0.36713 -1.17073,0.66753 -1.40098,0.66753 -0.55933,0 -1.05947,-0.5294 -1.05947,-1.12144 0,-0.67439 -0.37091,-0.60211 -1.64442,0.3204 -1.25531,0.90934 -1.6167,0.9753 -2.10699,0.38454 -0.28441,-0.3427 -0.26108,-0.8655 0.13174,-2.95078 0.26253,-1.39383 0.41963,-2.59195 0.34913,-2.66244 -0.0705,-0.0705 -0.49381,0.0816 -0.94068,0.33812 -0.73201,0.4201 -0.86007,0.70062 -1.2926,2.83129 -0.46102,2.27093 -0.51639,2.38015 -1.39236,2.74616 -0.50175,0.20963 -0.99888,0.38116 -1.10478,0.38116 -0.10587,0 0.14868,-1.35175 0.56567,-3.00387 0.41699,-1.65213 0.75861,-3.09707 0.75914,-3.21098 0.001,-0.34569 -1.56804,0.58011 -1.82716,1.07766 -0.13303,0.25549 -0.45253,1.3684 -0.70995,2.47314 -0.44795,1.92238 -0.51244,2.0276 -1.50159,2.45002 -0.56843,0.24276 -1.03352,0.40087 -1.03352,0.35138 0,-0.0496 0.30038,-1.3613 0.66752,-2.91509 0.88309,-3.73741 0.88225,-3.75526 -0.15438,-3.21919 -0.80727,0.41745 -0.82036,0.41405 -0.73428,-0.19089 0.10286,-0.7231 2.4287,-2.35651 3.35545,-2.35651 0.46608,0 0.60384,0.15228 0.60384,0.66752 0,0.36714 0.0522,0.66753 0.11579,0.66753 0.0636,0 0.71574,-0.37297 1.44906,-0.82883 1.43686,-0.8932 1.9063,-0.84904 1.9063,0.17934 v 0.65406 l 1.42339,-0.80332 c 2.50151,-1.41175 2.75173,-1.03687 1.78073,2.66782 -0.28867,1.10142 -0.52692,2.22465 -0.52943,2.49607 -0.004,0.46894 0.0384,0.46631 0.85806,-0.0527 0.64658,-0.40938 0.99769,-0.94517 1.40181,-2.13914 0.93615,-2.76585 2.45702,-3.89534 5.14536,-3.82127 2.0345,0.056 2.37712,0.20509 1.85431,0.8067 -0.37347,0.42979 -1.25381,3.8651 -1.25381,4.89278 0,0.95117 1.72911,-0.66209 2.12375,-1.98147 0.46642,-1.55942 1.17867,-2.48267 2.52308,-3.27055 0.92994,-0.54497 1.49427,-0.66855 3.05317,-0.66855 1.0518,0 1.91235,0.0626 1.91235,0.13921 0,0.0766 -0.28548,0.58724 -0.63442,1.1348 -0.41025,0.64377 -0.83986,2.08055 -1.21584,4.06617 -0.82893,4.37781 -1.21909,5.44104 -2.29878,6.26456 -1.84374,1.40629 -4.95412,1.93919 -6.20493,1.06309 z m 5.01292,-1.89126 c 0.4352,-0.45668 1.43192,-4.10133 1.12161,-4.10133 -0.23174,0 -1.99458,1.39592 -3.32358,2.6318 -1.82058,1.693 -1.66852,2.24941 0.56392,2.06332 0.68407,-0.057 1.36004,-0.30206 1.63805,-0.59379 z m -6.48967,-5.21851 c 0.39688,-0.49919 0.96754,-3.08435 0.78555,-3.5586 -0.26756,-0.69727 -1.21357,-0.44931 -1.76876,0.4636 -0.58593,0.96349 -1.19696,3.52467 -0.94007,3.94034 0.18582,0.30068 1.45601,-0.25761 1.92328,-0.84534 z m 7.36741,-0.32443 c 0.49703,-0.36195 0.88125,-1.01567 1.15948,-1.97275 0.22888,-0.78728 0.35353,-1.49402 0.27702,-1.57054 -0.0766,-0.0766 -0.51932,-0.0556 -0.984,0.0464 -0.96145,0.21118 -1.49492,1.18643 -1.77776,3.25003 -0.18472,1.34764 -0.18608,1.34738 1.32526,0.24681 z m -164.488769,6.71507 c -0.548792,-0.68597 -0.598231,-1.50592 -0.203843,-3.38079 0.223015,-1.06018 0.405479,-2.03988 0.405479,-2.17714 0,-0.13719 -0.450579,-0.25337 -1.001288,-0.25804 -0.9586834,-0.009 -0.9785654,-0.0263 -0.4672674,-0.42684 0.2937114,-0.23009 0.8501734,-0.53343 1.2365814,-0.6741 0.544817,-0.19833 0.740217,-0.49124 0.870274,-1.30457 0.142655,-0.89209 0.332639,-1.13296 1.271366,-1.61186 l 1.103652,-0.56305 -0.171465,1.02616 c -0.0943,0.56438 -0.24562,1.29651 -0.336254,1.62692 -0.15596,0.56858 -0.08841,0.60078 1.260739,0.60078 h 1.425528 l -0.572695,0.57269 c -0.314981,0.31499 -1.032571,0.64707 -1.594643,0.73798 -1.014764,0.16412 -1.024339,0.17734 -1.361484,1.87803 -0.186743,0.94201 -0.246476,1.8058 -0.132742,1.91954 0.113736,0.11378 0.768828,-0.14309 1.455762,-0.57059 0.857391,-0.53366 1.29004,-0.67621 1.379962,-0.45469 0.07205,0.17749 0.140471,0.0675 0.152067,-0.2445 0.08987,-2.4182 2.411959,-5.17351 4.360087,-5.17351 0.857524,0 1.268208,0.48119 1.268208,1.48595 0,1.05595 -0.660181,1.90883 -2.381556,3.07671 -1.371808,0.93072 -1.652647,1.53449 -0.975253,2.09668 0.445447,0.36968 1.42731,-0.0524 2.790779,-1.19967 l 0.83304,-0.70096 v 0.80233 c 0,0.79802 -1.025498,1.85994 -2.585796,2.67765 -1.373048,0.71956 -3.288429,0.0948 -3.288429,-1.07269 0,-0.78259 -0.336986,-0.70629 -2.044816,0.46293 -1.825551,1.24982 -2.264492,1.38799 -2.695993,0.84865 z m 8.205824,-5.79604 c 0.375854,-0.7023 0.341975,-1.07948 -0.09696,-1.07948 -0.315958,0 -1.23197,1.47634 -1.23197,1.98557 0,0.32262 1.057069,-0.39811 1.328932,-0.90609 z m 3.440079,5.35114 c -0.551058,-0.44729 -0.624387,-0.71908 -0.582931,-2.16062 0.06606,-2.29714 1.000408,-4.13067 2.686211,-5.27129 1.432902,-0.96951 1.972685,-1.06302 2.587499,-0.44819 0.602215,0.60221 0.518275,1.61708 -0.173845,2.10187 -0.771736,0.54053 -0.91785,0.52462 -1.085995,-0.11838 -0.216623,-0.82837 -0.976165,-0.63396 -1.389673,0.35569 -0.496828,1.18908 -0.750835,3.42586 -0.441272,3.88586 0.333435,0.49546 1.245708,0.24307 2.724034,-0.75361 1.169657,-0.7886 1.1882,-0.79175 1.27974,-0.21729 0.112213,0.70414 -0.849687,1.57126 -2.762988,2.49076 -1.617859,0.77753 -2.025509,0.79693 -2.84078,0.13518 z m 5.719164,0.16789 c 0.397447,-1.03573 1.340741,-5.80601 1.179907,-5.96685 -0.10141,-0.10143 -0.499661,-0.0408 -0.884997,0.13489 -0.610397,0.27812 -0.679307,0.26369 -0.53515,-0.11191 0.09101,-0.23715 0.165464,-0.5327 0.165464,-0.65677 0,-0.30123 2.756152,-1.86683 3.28646,-1.86683 0.267643,0 0.447925,0.28787 0.501518,0.8008 l 0.08367,0.8008 1.201546,-0.79965 c 1.155209,-0.76882 2.232708,-1.02665 2.497825,-0.59767 0.06944,0.11234 -0.172327,1.44554 -0.537255,2.96262 -0.364928,1.5171 -0.605312,2.81654 -0.534191,2.88766 0.07113,0.0711 0.599518,-0.14136 1.174215,-0.47206 0.800922,-0.46095 1.150574,-0.89889 1.497457,-1.87557 0.7352,-2.07 3.106776,-3.95192 5.000507,-3.96807 1.070756,-0.009 1.850362,1.01349 1.840659,2.41443 -0.01837,2.65414 -1.750607,5.15606 -4.138128,5.97685 -1.624292,0.55841 -2.417323,0.14895 -3.232637,-1.66907 -0.0199,-0.0444 -0.789495,0.4062 -1.710208,1.00128 -0.920715,0.59509 -1.771325,1.08198 -1.890245,1.08198 -0.118923,0 -0.346481,-0.24339 -0.505686,-0.54087 -0.219372,-0.4099 -0.154873,-1.1621 0.26637,-3.10637 0.305711,-1.41102 0.515027,-2.6063 0.46515,-2.65617 -0.04988,-0.0498 -0.530194,0.20796 -1.067371,0.57299 -0.981553,0.66697 -1.141802,1.01422 -1.760795,3.81538 -0.30296,1.37101 -0.208631,1.25736 -1.486949,1.79148 -0.849821,0.35508 -0.998474,0.36301 -0.877135,0.0468 z m 12.247947,-1.81387 c 1.075889,-0.57579 1.921967,-3.5354 1.399735,-4.89631 -0.378685,-0.98683 -1.887821,-0.059 -2.490245,1.53086 -0.382115,1.00851 -0.361514,2.93646 0.03561,3.33359 0.389856,0.38986 0.386177,0.38975 1.054892,0.0319 z m 4.181792,0.95271 c -0.248827,-0.54611 -0.149193,-1.42759 0.535705,-4.73943 1.184076,-5.72563 1.235251,-5.86647 2.583305,-7.10906 1.067592,-0.98407 1.331462,-1.09814 2.540348,-1.09814 h 1.349012 l -0.592226,0.80104 c -0.445713,0.60286 -0.805886,0.80102 -1.455845,0.80102 -1.031108,0 -1.048407,0.0419 -2.231583,5.405 -1.053809,4.77671 -1.064379,4.6322 0.283918,3.88158 0.601395,-0.3348 1.191212,-0.84905 1.310701,-1.14276 0.119497,-0.29372 0.366721,-0.93364 0.549396,-1.42204 0.43041,-1.15078 1.695881,-2.40372 3.048263,-3.01805 1.40481,-0.63817 2.307447,-0.6248 3.026195,0.0448 1.260486,1.17432 0.311561,5.19962 -1.585757,6.72673 -2.030057,1.63396 -4.030384,1.76793 -4.772141,0.31962 -0.220283,-0.43011 -0.42136,-0.82289 -0.446839,-0.87284 -0.02547,-0.05 -0.697246,0.40063 -1.49282,1.00129 -1.675099,1.26471 -2.225449,1.3522 -2.649632,0.42122 z m 7.978759,-1.33124 c 1.30599,-0.91475 1.927849,-4.94668 0.796078,-5.1615 -0.626206,-0.1188 -1.489829,0.65423 -1.952812,1.74809 -0.449484,1.06199 -0.47425,3.06207 -0.04324,3.49307 0.410213,0.41022 0.510058,0.40358 1.199984,-0.0797 z m 11.694163,0.92639 c -0.09457,-0.29795 0.08427,-1.63299 0.397391,-2.96675 0.313131,-1.33375 0.512986,-2.48136 0.444121,-2.55023 -0.06886,-0.0688 -0.436018,0.0784 -0.8159,0.32736 -0.682712,0.44733 -0.690691,0.44443 -0.690691,-0.25156 0,-0.54761 0.277712,-0.88024 1.249397,-1.49646 1.492734,-0.94666 2.196303,-1.19726 2.50207,-0.89122 0.124611,0.12469 -0.05866,1.54752 -0.407263,3.16176 -0.348611,1.61426 -0.594464,2.97438 -0.54634,3.02249 0.04813,0.0481 0.549723,-0.14869 1.114661,-0.43737 0.896065,-0.45789 1.069376,-0.70421 1.357894,-1.92994 0.421192,-1.78938 0.881219,-2.47872 2.262569,-3.39042 0.963064,-0.63562 1.357133,-0.72871 2.946146,-0.696 1.008906,0.0208 1.896328,0.0997 1.97205,0.17545 0.07572,0.0757 -0.03775,0.47927 -0.252165,0.89676 -0.396594,0.77224 -1.29002,4.68132 -1.11087,4.86048 0.054,0.054 0.534544,-0.17149 1.067865,-0.5011 l 0.969677,-0.5993 -0.08785,0.75228 c -0.06797,0.58201 -0.473135,1.01548 -1.790036,1.91502 -0.936207,0.6395 -1.837367,1.11777 -2.002577,1.06282 -0.165212,-0.055 -0.360464,-0.41621 -0.433892,-0.80282 l -0.133504,-0.70291 -1.174972,0.79168 c -1.511983,1.01878 -2.112064,1.01651 -2.469674,-0.009 -0.153584,-0.44056 -0.357605,-0.80052 -0.45338,-0.79989 -0.09578,5.3e-4 -0.714832,0.36058 -1.375682,0.79989 -1.412772,0.93915 -2.294679,1.02923 -2.539044,0.25931 z m 7.437514,-2.17542 c 0.463236,-0.31957 0.885828,-0.61347 0.939093,-0.65311 0.189674,-0.14107 0.793845,-3.42694 0.667663,-3.63111 -0.07067,-0.11435 -0.419351,-0.20792 -0.774838,-0.20792 -0.488575,0 -0.783581,0.26902 -1.208597,1.10212 -0.558449,1.09466 -1.037941,3.97108 -0.661964,3.97108 0.108019,0 0.575407,-0.26147 1.038643,-0.58106 z m 16.83204,1.48785 c -0.09598,-0.3824 0.03803,-1.70798 0.297778,-2.94576 0.259753,-1.23776 0.406359,-2.31641 0.325788,-2.39698 -0.08057,-0.0806 -0.407382,-0.007 -0.726249,0.16379 -0.69522,0.37207 -0.825566,0.28501 -0.639356,-0.42706 0.169979,-0.65001 2.913799,-2.34954 3.456807,-2.14117 0.497928,0.19107 0.487986,0.39442 -0.14922,3.05241 -0.565505,2.35889 -0.656931,3.25479 -0.331899,3.25263 0.110188,-8e-4 0.556814,-0.2866 0.992594,-0.63528 0.640726,-0.51264 0.896183,-1.06139 1.335052,-2.86775 0.529044,-2.17755 0.572458,-2.25013 1.723495,-2.88123 1.081965,-0.59324 1.164168,-0.60452 0.982466,-0.13475 -0.217933,0.56339 -1.494817,5.73207 -1.495377,6.05311 -0.0013,0.84614 2.342974,-0.80413 2.560433,-1.80232 0.340447,-1.56279 1.193101,-2.82535 2.443654,-3.61843 0.682741,-0.43299 1.515461,-0.78724 1.850461,-0.78724 0.80763,0 1.49986,1.06708 1.27456,1.96477 -0.16718,0.66606 -1.59064,2.13871 -3.156731,3.26579 -0.67138,0.48319 -0.72899,0.62563 -0.45787,1.13222 0.17056,0.31871 0.43395,0.57949 0.5853,0.57949 0.449511,0 1.379941,-0.55863 2.376141,-1.42661 l 0.93453,-0.81425 0.094,0.65213 c 0.12498,0.86713 -1.98024,2.79999 -3.493341,3.20742 -0.943406,0.25404 -1.181107,0.22437 -1.781723,-0.2223 -0.381203,-0.2835 -0.73149,-0.77374 -0.778424,-1.08942 -0.10674,-0.71833 -0.161705,-0.7155 -1.200787,0.0621 -2.059245,1.54087 -3.386568,1.81814 -3.386568,0.70743 0,-0.68687 -0.05732,-0.68151 -1.335052,0.12513 -1.384185,0.8738 -2.076225,0.86545 -2.300402,-0.0277 z m 11.294797,-4.95849 c 0.33988,-0.31931 0.61798,-0.79993 0.61798,-1.06803 0,-0.97851 -0.80526,-0.4124 -1.313001,0.92306 -0.33333,0.87675 -0.12929,0.91933 0.695021,0.14497 z m 15.81359,4.54095 c -0.42665,-0.79721 -0.12211,-3.38829 0.59382,-5.05255 0.41079,-0.9549 0.92009,-1.57556 1.77628,-2.16462 1.05868,-0.72839 1.40599,-0.82236 2.94259,-0.79618 2.02766,0.0345 2.40028,0.26869 1.83668,1.15407 -0.37691,0.59208 -1.35964,4.74851 -1.16803,4.94011 0.0487,0.0487 0.50054,-0.21651 1.00401,-0.58945 l 0.91542,-0.67807 0.093,0.60539 c 0.10143,0.66132 -0.60442,1.35954 -2.55474,2.52699 -1.19486,0.71522 -1.67679,0.66243 -1.67679,-0.18369 0,-0.66256 -0.16823,-0.64466 -1.46856,0.15623 -1.31649,0.81085 -1.89237,0.83138 -2.29355,0.0817 z m 3.12532,-2.141 c 0.42366,-0.32104 0.80814,-0.60919 0.8544,-0.64036 0.0463,-0.0312 0.25998,-0.81062 0.47495,-1.73213 0.39372,-1.68773 0.2821,-2.10881 -0.55905,-2.10881 -0.85151,0 -1.7238,1.64007 -1.92883,3.62649 -0.16632,1.61152 -10e-4,1.7335 1.15853,0.85481 z m 5.19418,-0.26474 c 0.98146,-3.84786 0.98169,-3.80729 -0.0182,-3.29021 -0.78831,0.40765 -0.80104,0.40349 -0.80104,-0.26264 0,-0.56778 0.28169,-0.81579 1.74752,-1.5386 1.48609,-0.73285 1.78443,-0.80236 1.99442,-0.46479 0.20329,0.32681 0.34208,0.33799 0.78546,0.0632 0.63962,-0.3964 2.14786,-0.44596 2.14786,-0.0705 0,0.14476 -0.14455,0.80363 -0.32121,1.46418 l -0.32123,1.20099 -0.60339,-0.56685 c -0.56346,-0.52936 -0.64605,-0.5389 -1.24825,-0.14432 -0.51988,0.34064 -0.76235,0.94065 -1.25091,3.09546 -0.54059,2.38427 -0.68108,2.70014 -1.30089,2.925 -0.38216,0.13863 -0.89428,0.33313 -1.13805,0.43221 -0.38264,0.15553 -0.33781,-0.233 0.32792,-2.84304 z m 5.589,2.1835 c -0.6563,-0.6563 -0.71517,-2.49722 -0.14165,-4.42861 0.65693,-2.2121 3.07665,-4.14083 4.51086,-3.59553 1.597,0.60718 1.04432,2.46017 -1.25274,4.20008 -0.90638,0.68654 -1.67323,1.26234 -1.70411,1.27952 -0.0309,0.0172 0.0129,0.29637 0.0978,0.62038 0.23598,0.90238 1.19829,0.73185 2.7379,-0.48514 l 1.35902,-1.07425 v 0.7848 c 0,0.589 -0.24982,0.98115 -1.00128,1.57169 -2.17656,1.7105 -3.65961,2.07338 -4.60593,1.12706 z m 2.6701,-5.0732 c 0.55317,-0.55316 0.73154,-1.60206 0.27244,-1.60206 -0.14387,0 -0.50678,0.48062 -0.80647,1.06805 -0.58534,1.14737 -0.33233,1.40039 0.53403,0.53401 z m 3.62114,4.91806 c -0.39955,-0.39955 -0.45991,-0.79897 -0.35757,-2.36563 0.16018,-2.45192 0.86903,-3.83486 2.52929,-4.93456 1.56255,-1.03499 2.4622,-1.00662 2.98753,0.0942 0.35477,0.74341 0.33478,0.81368 -0.39854,1.40047 -0.96118,0.7691 -1.11397,0.77156 -1.22076,0.0197 -0.11622,-0.81817 -0.80392,-0.75775 -1.21841,0.10703 -0.56763,1.18431 -0.89768,3.41325 -0.59043,3.98734 0.38478,0.71898 0.80426,0.64482 2.39041,-0.42258 0.76344,-0.51375 1.48327,-0.87528 1.59962,-0.80337 0.11636,0.072 0.29482,-0.3132 0.3966,-0.85579 0.52152,-2.7799 3.0148,-5.03273 4.81318,-4.34899 0.55644,0.21157 0.66753,0.4292 0.66753,1.3079 0,1.15892 -0.78538,2.14922 -2.71964,3.42925 -1.05951,0.70115 -1.12473,0.81659 -0.85643,1.51574 0.26008,0.67778 1.13924,0.4926 2.53873,-0.53471 1.14533,-0.84075 1.32538,-0.90084 1.48135,-0.49441 0.12743,0.33194 -0.16321,0.78464 -1.02841,1.6021 -2.14166,2.0235 -4.56337,2.21335 -4.92878,0.38636 -0.0885,-0.4422 -0.20352,-0.80398 -0.25574,-0.80398 -0.0521,0 -0.77913,0.43766 -1.61535,0.9726 -1.82921,1.17013 -3.49274,1.46276 -4.21418,0.74133 z m 9.11138,-5.2316 c 0.3399,-0.31931 0.61799,-0.79993 0.61799,-1.06804 0,-0.97852 -0.80525,-0.41241 -1.313,0.92307 -0.33334,0.87675 -0.1293,0.91932 0.69501,0.14497 z m 34.78637,4.302 c -0.22674,-0.42365 -0.1673,-1.09348 0.25761,-2.9034 0.71367,-3.03982 0.71042,-3.1191 -0.10573,-2.58431 -0.84268,0.55214 -0.94392,0.54257 -0.94392,-0.0892 0,-0.84877 3.03355,-2.85213 3.69746,-2.44181 0.25333,0.15656 0.18133,0.88353 -0.31542,3.18462 -0.43153,1.99901 -0.54492,2.98142 -0.34404,2.98074 0.71134,-0.003 2.03541,-1.08176 2.04106,-1.66387 0.0115,-1.2008 1.00381,-2.82664 2.30941,-3.78434 1.40829,-1.03303 2.22531,-1.18647 2.87234,-0.53944 0.67199,0.67197 0.51429,1.54543 -0.3737,2.06997 -0.78958,0.46641 -0.7941,0.46542 -0.96349,-0.20944 -0.20058,-0.79921 -0.41484,-0.84534 -0.97891,-0.21079 -0.90126,1.01391 -1.3088,4.01928 -0.62228,4.58905 0.38763,0.3217 1.51705,-0.13318 3.02422,-1.21791 0.57937,-0.41699 0.60077,-0.40794 0.60077,0.2541 0,1.12474 -2.66121,2.84975 -4.39634,2.84975 -0.76504,0 -1.04456,-0.15266 -1.42506,-0.77833 l -0.47333,-0.77834 -1.44619,0.91184 c -1.68172,1.06036 -2.01363,1.11001 -2.4144,0.36113 z m 10.95635,0.0218 c -0.56232,-0.35611 -0.50474,-3.22532 0.10056,-5.00921 0.52202,-1.53856 1.78435,-2.79384 3.31876,-3.30025 0.82506,-0.27229 3.78998,-0.12139 3.78998,0.19294 0,0.0701 -0.16656,0.45201 -0.37014,0.84858 -0.38217,0.7444 -1.26547,4.6481 -1.09119,4.82239 0.054,0.054 0.52505,-0.16562 1.04677,-0.48807 l 0.94859,-0.58625 v 0.68717 c 0,0.55472 -0.36194,0.92785 -1.87762,1.93571 -1.90903,1.26942 -2.26847,1.29394 -2.43869,0.16636 -0.0888,-0.58789 -0.0974,-0.58651 -1.26434,0.20025 -1.26547,0.85321 -1.54473,0.92171 -2.16266,0.53038 z m 2.76239,-2.45532 c 0.46323,-0.31957 0.88582,-0.61347 0.93909,-0.65311 0.18968,-0.14107 0.79384,-3.42693 0.66766,-3.6311 -0.0707,-0.11436 -0.41934,-0.20792 -0.77483,-0.20792 -0.48857,0 -0.78358,0.26902 -1.2086,1.10212 -0.55845,1.09465 -1.03795,3.97108 -0.66196,3.97108 0.10803,0 0.5754,-0.26148 1.03864,-0.58107 z M 66.886359,444.34271 c -0.603362,-0.92085 -0.536559,-1.28992 0.352457,-1.94719 l 0.779382,-0.57622 0.536562,0.9094 0.536562,0.90941 -0.889016,0.67808 -0.889018,0.67809 z m 101.497951,-1.17142 c -0.41524,-0.15596 -0.32264,-0.3909 0.7519,-1.90773 0.67401,-0.95144 1.31728,-1.88875 1.42948,-2.08291 0.16916,-0.2927 0.34441,-0.2927 1.02558,0 l 0.82155,0.35304 -1.77748,1.90772 c -1.33717,1.43516 -1.8948,1.86368 -2.25103,1.72988 z m 13.7081,-1.67035 -0.50862,-0.83634 0.75135,-0.63221 c 0.97861,-0.82345 1.20834,-0.79792 1.61312,0.17927 0.30311,0.73181 0.27551,0.876 -0.28117,1.46856 -0.79634,0.84767 -0.96161,0.82885 -1.57468,-0.17928 z m -93.102536,-25.02236 -7.775218,-7.67887 2.835529,-2.96869 c 3.488502,-3.65234 6.061994,-5.80275 8.019161,-6.70084 1.256383,-0.5765 1.892412,-0.68695 4.032911,-0.70026 2.339124,-0.0145 2.680318,0.0526 4.289113,0.84419 2.27952,1.12161 4.77179,3.68891 5.87993,6.05694 0.69059,1.47578 0.81584,2.06249 0.81584,3.82188 0,3.86809 -1.32774,6.16105 -6.80778,11.75679 -1.761781,1.79899 -3.27322,3.26568 -3.358755,3.25931 -0.08548,-0.006 -3.654365,-3.46706 -7.930731,-7.69045 z m 10.451845,-0.64205 c 1.606321,-1.80215 2.525801,-3.72504 2.521601,-5.27346 -0.009,-3.34212 -3.702793,-7.02299 -7.040013,-7.01548 -1.913229,0.004 -3.130249,0.60453 -5.141301,2.53564 l -1.744795,1.67544 4.897963,4.7284 c 2.693879,2.60062 4.978757,4.73353 5.07751,4.73982 0.09869,0.006 0.74182,-0.61937 1.429035,-1.39036 z m 11.494891,-12.92356 c -4.31598,-1.32471 -8.65637,-6.32623 -9.12619,-10.51628 -0.21191,-1.88994 0.41749,-4.43403 1.57313,-6.35867 1.20046,-1.99933 3.94412,-4.48743 6.04732,-5.48406 1.55754,-0.73806 2.02043,-0.83056 4.15586,-0.83056 3.31996,0 5.25438,0.90713 8.1182,3.80699 2.70972,2.74385 3.55412,4.4628 3.70427,7.54095 0.13662,2.80046 -0.45349,4.58692 -2.31703,7.01455 -3.26267,4.25033 -7.95881,6.11519 -12.15556,4.82708 z m 6.33008,-4.99206 c 1.12973,-0.47296 2.71272,-2.25119 3.13026,-3.51638 0.95209,-2.88484 -2.24626,-7.67431 -6.2388,-9.34252 -2.71467,-1.13425 -5.83089,0.14813 -6.96692,2.86702 -0.95286,2.28049 -0.0905,4.84283 2.5025,7.43583 2.55842,2.55842 5.33151,3.49441 7.57296,2.55605 z m -44.13322,0.27448 c -2.02722,-0.56121 -4.169178,-2.29567 -6.340783,-5.13444 -1.066059,-1.39358 -2.994738,-4.93042 -2.999601,-5.50071 -0.0036,-0.42497 2.756644,-3.16416 3.188509,-3.16416 0.116667,0 0.284691,0.36288 0.373397,0.80641 0.582039,2.91019 3.73575,7.37442 5.657677,8.00871 1.156114,0.38155 2.310314,-0.17565 2.796835,-1.35022 0.33104,-0.7992 0.26366,-1.00166 -1.470008,-4.41687 -2.584071,-5.09046 -2.690409,-7.00509 -0.522947,-9.41583 3.203094,-3.56261 7.068261,-3.29704 10.883975,0.74781 1.619876,1.71716 4.454775,5.89817 4.454775,6.57007 0,0.16768 -0.71423,0.92609 -1.58718,1.68537 l -1.58718,1.38049 -0.548902,-1.24088 c -0.301895,-0.68249 -0.548901,-1.29957 -0.548901,-1.3713 0,-0.0717 -0.557528,-0.96905 -1.238951,-1.99405 -2.079267,-3.12766 -4.309903,-4.23056 -5.656771,-2.79689 -0.31931,0.33989 -0.580564,0.91064 -0.580564,1.26834 0,0.35769 0.669478,1.85187 1.487729,3.32041 1.936463,3.47544 2.517425,4.95855 2.517425,6.42667 0,1.61808 -0.537777,2.79727 -1.861632,4.08203 -1.994415,1.93551 -4.281699,2.68015 -6.416902,2.08904 z m 51.26718,-17.81266 -7.87681,-7.72342 2.55601,-2.56013 2.556,-2.56014 5.93692,2.31644 c 3.2653,1.27405 5.9795,2.27328 6.03156,2.22053 0.052,-0.0527 -0.97242,-2.67923 -2.2766,-5.83663 -1.30418,-3.1574 -2.375,-5.86324 -2.37958,-6.013 -0.004,-0.14976 1.1031,-1.37488 2.46151,-2.72251 l 2.46985,-2.45021 7.86369,7.67913 7.86371,7.67913 -0.56597,0.7841 c -0.31128,0.43124 -1.11825,1.32154 -1.79327,1.97845 l -1.2273,1.19436 -4.20137,-4.13422 c -2.31074,-2.27381 -4.96011,-4.8539 -5.8875,-5.73353 l -1.68614,-1.59932 0.52374,1.33505 c 0.28806,0.73428 1.37725,3.40209 2.42042,5.92847 1.04318,2.52637 1.89668,4.68461 1.89668,4.79608 0,0.31322 -2.21168,2.49291 -2.52544,2.48889 -0.15298,-10e-4 -2.86148,-1.01213 -6.01888,-2.24483 -3.15739,-1.23267 -5.76907,-2.21403 -5.8037,-2.18078 -0.0346,0.0333 2.45856,2.57163 5.54045,5.64082 3.08191,3.06917 5.60345,5.65685 5.60345,5.75035 0,0.24476 -3.21706,3.72114 -3.42803,3.70438 -0.0971,-0.007 -3.72116,-3.48957 -8.0534,-7.73746 z m -66.288149,2.50931 -1.798056,-2.0576 1.036964,-1.89057 1.036966,-1.89057 -3.048439,-3.38272 -3.048443,-3.38271 -2.007705,0.8177 -2.007709,0.81771 -1.388475,-1.55686 c -2.650135,-2.97155 -3.801507,-2.04858 8.711984,-6.98367 l 10.967035,-4.3252 1.370649,1.52159 c 0.753858,0.83687 1.763613,1.97229 2.243901,2.52316 l 0.87325,1.00157 -5.232735,9.95901 c -2.878003,5.47744 -5.385377,10.16774 -5.571933,10.42288 -0.305223,0.41741 -0.519314,0.25777 -2.137254,-1.59372 z m 4.598754,-13.6127 c 1.195589,-2.14627 2.110691,-3.96542 2.033562,-4.04255 -0.146265,-0.14626 -8.121192,3.11917 -8.291769,3.39517 -0.111466,0.18035 3.639397,4.54545 3.908028,4.54801 0.09701,8e-4 1.154593,-1.75435 2.350179,-3.90063 z m -2.223939,-27.14235 -36.544788,-39.5795 48.693753,-0.0611 c 26.781558,-0.0336 60.416139,0.0265 74.743499,0.1335 l 26.04976,0.19461 -36.00117,37.24792 c -19.80063,20.48636 -36.99006,38.23706 -38.198711,39.44601 l -2.197559,2.19806 z m 61.625264,10.31733 6.35939,-6.57585 -0.89582,-0.70018 c -0.4927,-0.38511 -1.1904,-0.95319 -1.55045,-1.26242 l -0.65464,-0.56222 0.41773,-5.71251 c 0.22976,-3.14189 0.38632,-5.74815 0.34792,-5.79169 -0.0384,-0.0435 -2.19031,1.3082 -4.78198,3.00387 -2.5917,1.69566 -4.86564,3.08302 -5.05321,3.08302 -0.18756,0 -2.61736,-0.94359 -5.39955,-2.09685 -3.05399,-1.26594 -5.0883,-1.9768 -5.13364,-1.79388 -0.0414,0.16665 0.57326,2.6965 1.36571,5.62189 l 1.44082,5.3189 -3.73225,4.36607 c -2.05272,2.40136 -3.68354,4.41479 -3.62403,4.4743 0.0595,0.0595 2.5663,0.23862 5.57065,0.39802 3.00436,0.15939 5.5902,0.33219 5.74636,0.38399 0.15615,0.0519 0.8768,1.0678 1.60146,2.25777 0.72465,1.18999 1.38473,2.1636 1.46684,2.1636 0.0822,0 3.01103,-2.95912 6.50869,-6.57583 z m -41.923975,4.41449 0.180451,-1.36031 5.476353,-2.64577 c 3.011996,-1.45516 5.419481,-2.73545 5.349978,-2.84509 -0.06953,-0.10962 -2.51949,-1.38851 -5.444393,-2.84194 l -5.318002,-2.64259 -0.8138,-5.84773 c -0.447591,-3.21626 -0.866919,-5.90086 -0.931844,-5.9658 -0.06492,-0.0649 -2.031722,1.80559 -4.370659,4.15668 l -4.25262,4.27472 -3.590218,-0.66495 c -1.974621,-0.36573 -3.612214,-0.63844 -3.639096,-0.60603 -0.08305,0.10013 16.831288,18.34828 17.007541,18.34871 0.09122,2.3e-4 0.247061,-0.61173 0.346309,-1.3599 z m 71.686405,-35.22009 9.66131,-10.01288 -3.73688,-0.074 -3.73688,-0.074 -2.43198,-3.46388 -2.43195,-3.46387 h -1.38713 -1.38713 l -1.31419,4.15506 c -0.77666,2.45555 -1.4856,4.24174 -1.73325,4.36697 -0.23049,0.11655 -2.72799,0.90822 -5.54999,1.75928 -2.82201,0.85105 -5.06771,1.64964 -4.99045,1.77465 0.0773,0.12501 2.19301,1.69313 4.70167,3.48472 l 4.56119,3.25744 -0.14688,4.23249 c -0.0807,2.32788 -0.055,4.19615 0.0572,4.15172 0.1122,-0.0444 4.55164,-4.58659 9.86537,-10.09368 z m -59.656904,0.53978 c 2.386892,-1.7591 4.513887,-3.26517 4.726677,-3.34683 0.212776,-0.0817 2.776946,0.69245 5.698137,1.72023 2.9212,1.02777 5.3453,1.83464 5.3869,1.79304 0.0417,-0.0416 -0.74627,-2.53509 -1.75085,-5.5411 l -1.82647,-5.46547 2.49778,-3.25593 c 1.37379,-1.79076 2.49779,-3.31813 2.49779,-3.39415 0,-0.076 -5.23484,-0.13823 -11.632977,-0.13823 H 86.182119 l -3.653355,1.09557 c -2.009346,0.60256 -3.742629,1.17846 -3.851741,1.27977 -0.10911,0.10131 1.91295,1.68097 4.493463,3.51036 l 4.691844,3.32615 -0.170595,5.80747 c -0.09383,3.19411 -0.09023,5.80748 0.008,5.80748 0.09822,0 2.131494,-1.43927 4.518384,-3.19837 z m -37.774134,-2.10165 c 0,-0.12476 -1.0213,-2.66606 -2.269559,-5.64734 l -2.269561,-5.42051 1.335024,-2.08119 c 0.734265,-1.14465 1.335025,-2.20799 1.335025,-2.36297 0,-0.19323 -3.524149,-0.28178 -11.214429,-0.28178 -6.167936,0 -11.21443,0.0687 -11.21443,0.15258 0,0.0839 2.700236,3.07175 6.000524,6.63961 4.957445,5.35937 6.106208,6.46917 6.608503,6.38431 0.334387,-0.0565 3.011072,0.55043 5.948183,1.34871 6.017586,1.63553 5.74072,1.57434 5.74072,1.26858 z m 92.051598,37.67499 -4.99245,-10.61365 2.32387,-2.33634 c 1.27811,-1.28498 2.39924,-2.33634 2.49139,-2.33634 0.1993,0 21.15078,9.34759 21.32347,9.51357 0.0655,0.0629 -0.76457,1.00401 -1.84457,2.09126 l -1.96365,1.97684 -1.86806,-0.94074 -1.86806,-0.94074 -3.20783,3.20783 -3.20784,3.20782 0.88923,2.03948 0.88925,2.03949 -1.83841,1.85259 c -1.01112,1.01893 -1.90489,1.85259 -1.98615,1.85259 -0.0813,0 -2.39435,-4.77614 -5.14019,-10.61366 z m 9.53371,-5.37452 c -0.22958,-0.22959 -8.2625,-3.99436 -8.34607,-3.91154 -0.0444,0.0441 0.85468,1.95573 1.99806,4.24815 l 2.07888,4.16804 2.19916,-2.18774 c 1.20953,-1.20324 2.14103,-2.24586 2.06997,-2.31691 z M 35.418952,365.05744 c -1.602459,-0.57186 -5.005899,-3.33101 -5.005899,-4.05826 0,-0.17912 0.660501,-0.88997 1.46778,-1.57964 l 1.467778,-1.25397 1.069587,0.96631 c 1.195049,1.07966 2.166962,1.23307 3.564293,0.5626 0.462761,-0.22204 4.325867,-3.52822 8.584679,-7.34704 l 7.743297,-6.94333 1.790693,1.94009 c 0.984883,1.06704 1.786972,2.06024 1.782419,2.20708 -0.0085,0.27543 -13.801637,12.67954 -15.800954,14.20979 -2.059933,1.57663 -4.531147,2.05739 -6.663673,1.29637 z M 31.55747,351.44908 c -3.068292,-1.00138 -6.142984,-3.79592 -7.746753,-7.04093 -0.940936,-1.90385 -1.007456,-2.19802 -1.007456,-4.45539 0,-2.17528 0.08717,-2.60101 0.871948,-4.25812 0.616624,-1.30207 1.408251,-2.36802 2.703453,-3.64031 4.314012,-4.23768 9.374814,-5.10679 13.702062,-2.35311 1.862358,1.18514 4.312092,3.94901 5.326488,6.00953 0.812557,1.65055 0.892948,2.0307 0.892948,4.22255 0,2.1673 -0.08762,2.59375 -0.874282,4.25489 -1.175454,2.48215 -4.069759,5.35485 -6.631476,6.58194 -1.518162,0.72722 -2.212841,0.89561 -3.975681,0.96367 -1.311049,0.0506 -2.570662,-0.0593 -3.261251,-0.28472 z m 3.795272,-5.33189 c 3.971986,-1.86027 6.801349,-6.03462 6.030529,-8.89721 -0.644663,-2.39409 -3.344903,-4.32338 -5.623306,-4.01778 -3.305104,0.4433 -7.420105,4.27917 -8.13393,7.58216 -0.403367,1.86645 1.234626,4.74045 3.187533,5.5928 1.244823,0.54331 3.044071,0.44026 4.539174,-0.25997 z m 129.827188,-0.001 c -3.08096,-1.29742 -5.83289,-3.97967 -7.17215,-6.9905 -0.37259,-0.83762 -0.63108,-2.05747 -0.70467,-3.32546 -0.20723,-3.57031 1.27852,-6.70479 4.7145,-9.94612 1.85963,-1.75428 4.45239,-3.49906 5.6387,-3.79451 0.55754,-0.13886 0.90687,0.0764 2.12043,1.30688 0.79909,0.81022 1.39987,1.51486 1.33505,1.56586 -0.0648,0.051 -0.68065,0.30119 -1.3685,0.55596 -1.84089,0.68186 -4.207,2.2986 -5.47918,3.74387 -2.8172,3.2005 -2.45006,6.97027 0.9848,10.11179 0.81006,0.74089 1.95347,1.5657 2.5409,1.83293 1.28997,0.58679 3.5482,0.63987 4.80911,0.11306 1.12121,-0.46848 3.49994,-2.64933 4.05008,-3.71318 0.39949,-0.77252 0.39302,-0.78571 -1.14935,-2.34434 l -1.5511,-1.56745 -1.2805,1.26125 -1.28052,1.26127 -1.33209,-1.33209 -1.3321,-1.3321 3.1416,-3.13342 3.1416,-3.13341 3.80402,3.81081 3.80403,3.81083 -1.149,2.2894 c -1.45699,2.90307 -3.4939,5.46774 -5.61112,7.06497 -2.50942,1.89311 -3.65227,2.31446 -6.5961,2.43186 -2.22345,0.0886 -2.72695,0.021 -4.07844,-0.54814 z M 11.694084,331.08914 c -2.8481454,-3.1811 -5.178446,-5.86068 -5.178446,-5.95462 0,-0.27504 16.192692,-14.73345 16.402911,-14.6461 0.320336,0.1331 3.489351,3.72294 3.489351,3.95271 0,0.11818 -2.913749,2.82308 -6.474998,6.0109 -3.561249,3.18783 -6.506671,5.87753 -6.545382,5.97711 -0.03872,0.0996 1.428229,1.85326 3.259867,3.89706 1.831636,2.04381 3.305163,3.72816 3.274505,3.743 -0.03066,0.0148 -0.729307,0.65176 -1.552553,1.41536 l -1.496809,1.38838 z m 171.505996,-2.20208 c -3.0372,-1.04909 -6.30221,-4.02094 -7.83233,-7.12906 -1.60537,-3.26097 -1.31621,-6.99857 0.7768,-10.04066 2.54239,-3.69523 6.43883,-6.08923 9.91078,-6.08923 3.44524,0 7.24776,2.20888 9.8218,5.70546 3.23952,4.40058 2.79356,9.64375 -1.17671,13.83485 -3.54948,3.74689 -7.61385,5.06111 -11.50034,3.71864 z m 7.50194,-5.44602 c 1.48407,-1.13196 2.13527,-2.23537 2.26867,-3.84409 0.17901,-2.15871 -0.47687,-3.55982 -2.7247,-5.82049 -2.57396,-2.58867 -4.52604,-3.41768 -6.96861,-2.95945 -1.09048,0.20457 -2.88881,1.69343 -3.52022,2.91441 -0.57701,1.11583 -0.51627,3.06418 0.14194,4.55213 0.73194,1.65465 3.50312,4.51276 5.21682,5.38046 1.85805,0.94078 4.18197,0.84802 5.58612,-0.22297 z"
       id="path458" />
  </g>
  <g
     inkscape:groupmode="layer"
     id="layer3"
     inkscape:label="text"
     style="display:inline">
    <text
       xml:space="preserve"
       style="font-style:normal;font-weight:normal;font-size:20.4749px;line-height:1.25;font-family:arial;letter-spacing:0px;word-spacing:0px;opacity:1;fill:#000000;fill-opacity:1;stroke:#1e73be;stroke-width:0.812;stroke-miterlimit:4;stroke-dasharray:none;stroke-opacity:1"
       x="192.70674"
       y="284.7131"
       id="text3919-6"><tspan
         sodipodi:role="line"
         id="tspan3917-7"
         x="191.05991"
         y="284.7131"
         style="font-style:normal;font-variant:normal;font-weight:bold;font-stretch:normal;font-family:arial;-inkscape-font-specification:'arial Bold';text-align:end;letter-spacing:-1.64685px;text-anchor:end;fill:#ffffff;stroke:#1e73be;stroke-width:0.812;stroke-miterlimit:4;stroke-dasharray:none;stroke-opacity:1">reta</tspan></text>
    <text
       xml:space="preserve"
       style="font-style:normal;font-weight:normal;font-size:8.53778px;line-height:1.25;font-family:arial;letter-spacing:0px;word-spacing:0px;opacity:1;fill:#1e73be;fill-opacity:1;stroke:none;stroke-width:0.213445"
       x="180.29175"
       y="265.55798"
       id="text3919-6-5"><tspan
         sodipodi:role="line"
         id="tspan3917-7-3"
         x="180.29175"
         y="265.55798"
         style="font-style:normal;font-variant:normal;font-weight:bold;font-stretch:normal;font-family:arial;-inkscape-font-specification:'arial Bold';letter-spacing:-0.686717px;fill:#1e73be;fill-opacity:1;stroke-width:0.213445">R$</tspan></text>
    <text
       id="text4782"
       y="275.35056"
       x="192.62082"
       style="font-style:normal;font-weight:normal;font-size:7.18409px;line-height:1.25;font-family:arial;letter-spacing:0px;word-spacing:0px;opacity:1;fill:#ffffff;fill-opacity:1;stroke:#1e73be;stroke-width:0.48;stroke-miterlimit:4;stroke-dasharray:none;stroke-opacity:1"
       xml:space="preserve"><tspan
         style="font-style:normal;font-variant:normal;font-weight:bold;font-stretch:normal;font-family:arial;-inkscape-font-specification:'arial Bold';letter-spacing:-0.577836px;fill:#ffffff;fill-opacity:1;stroke:#1e73be;stroke-width:0.48;stroke-miterlimit:4;stroke-dasharray:none;stroke-opacity:1"
         y="275.35056"
         x="192.62082"
         id="tspan4780"
         sodipodi:role="line">00</tspan></text>
    <text
       xml:space="preserve"
       style="font-style:normal;font-weight:normal;font-size:10.5833px;line-height:1.25;font-family:arial;text-align:start;letter-spacing:0px;word-spacing:0px;text-anchor:start;opacity:1;fill:#000000;fill-opacity:1;stroke:none;stroke-width:0.264583"
       x="7.5250602"
       y="-15.39914"
       id="text3919"><tspan
         sodipodi:role="line"
         id="tspan3917"
         x="7.5250602"
         y="-15.39914"
         style="font-style:normal;font-variant:normal;font-weight:normal;font-stretch:normal;font-family:Arial;-inkscape-font-specification:Arial;text-align:start;letter-spacing:-0.799042px;text-anchor:start;fill:#ffffff;stroke-width:0.264583">Kimono Karate Torah A3 lacrado + faixa branca brinde R$210 | Local=Vini, Caixa G Preta</tspan></text>
    <text
       xml:space="preserve"
       style="font-style:normal;font-weight:normal;font-size:10.5833px;line-height:1.25;font-family:arial;fill:#000000;fill-opacity:1;stroke:none;stroke-width:0.264583"
       x="109.4072"
       y="1.1129271"
       id="text9917"><tspan
         sodipodi:role="line"
         id="tspan9915"
         style="stroke-width:0.264583"
         x="109.4072"
         y="1.1129271" /></text>
  </g>
</svg>
